<?xml version="1.0" encoding="utf-8"?>
<!-- Generator: Adobe Illustrator 28.0.0, SVG Export Plug-In . SVG Version: 6.00 Build 0)  -->
<svg version="1.1" id="Layer_1" xmlns="http://www.w3.org/2000/svg" xmlns:xlink="http://www.w3.org/1999/xlink" x="0px" y="0px"
	 viewBox="0 0 18.9 24.6" style="enable-background:new 0 0 18.9 24.6;" xml:space="preserve">
<style type="text/css">
	.st0{fill:none;stroke:#000000;stroke-width:1.5;stroke-miterlimit:10;}
	.st1{fill:none;stroke:#000000;stroke-linecap:round;stroke-miterlimit:10;}
	.st2{fill:none;stroke:#000000;stroke-width:0.75;stroke-miterlimit:10;}
</style>
<g>
	<path class="st0" d="M6,18v-1.7c0-0.2-0.1-0.4-0.4-0.6c-1.2-0.6-4.7-2.7-4.8-7.4C0.7,2.8,6.5,0.8,9.3,0.8c3.9,0,8.9,1.7,8.9,7.7
		c0,5.9-5.2,6.8-5.2,7.5v2.8c0,0.2-0.2,0.3-0.4,0.3l-6.2-0.6C6.2,18.5,6,18.3,6,18z"/>
	<line class="st1" x1="6.4" y1="20.7" x2="12.4" y2="21.4"/>
	<line class="st1" x1="6.6" y1="22.6" x2="12.1" y2="23.1"/>
	<path class="st2" d="M8,22.7c0,0,0.1,1.4,1.3,1.5c1.3,0.2,1.8-1.1,1.8-1.2"/>
</g>
</svg>
