<?xml version="1.0" encoding="utf-8"?>
<!-- Generator: Adobe Illustrator 28.0.0, SVG Export Plug-In . SVG Version: 6.00 Build 0)  -->
<svg version="1.1" id="Layer_1" xmlns="http://www.w3.org/2000/svg" xmlns:xlink="http://www.w3.org/1999/xlink" x="0px" y="0px"
	 viewBox="0 0 22.9 24.2" style="enable-background:new 0 0 22.9 24.2;" xml:space="preserve">
<style type="text/css">
	.st0{fill:none;stroke:#000000;stroke-width:1.5;stroke-miterlimit:10;}
	.st1{fill:none;stroke:#000000;stroke-miterlimit:10;}
	.st2{fill:#F15E5E;}
	.st3{fill:#F15E5D;}
	.st4{enable-background:new    ;}
	.st5{fill:#FFFFFF;}
</style>
<g>
	<g>
		<path class="st0" d="M0.9,20l2.8-3.4c0.2-0.3,0.4-0.7,0.3-1C3.6,13.1,2.4,3.1,11,3.1c7.7,0,6.9,8,6.7,11.9c0,0.4,0.1,0.8,0.4,1.1
			l3.4,4.2c0.2,0.3,0,0.6-0.3,0.6h-6.4H7.9H1.4C0.8,20.9,0.5,20.4,0.9,20z"/>
		<path class="st1" d="M7.8,20.9c0,4,6.5,3.5,6.5,0"/>
		<path class="st1" d="M9.7,2.9c0-1.7,2.5-2.3,2.7,0"/>
	</g>
	<g id="Group_6" transform="translate(-1789.291 -2362.406)">
		<g id="Path_9" transform="translate(1789.291 2362.406)">
			<path class="st2" d="M18.2,9.2c-2.4,0-4.4-2-4.4-4.4s2-4.4,4.4-4.4s4.4,2,4.4,4.4S20.6,9.2,18.2,9.2z"/>
			<path class="st3" d="M18.2,0.6c-2.3,0-4.2,1.9-4.2,4.2S15.9,9,18.2,9s4.2-1.9,4.2-4.2S20.5,0.6,18.2,0.6 M18.2,0
				c2.6,0,4.7,2.1,4.7,4.7s-2.1,4.7-4.7,4.7s-4.7-2.1-4.7-4.7S15.6,0,18.2,0z"/>
		</g>
		<g class="st4">
			<path class="st5" d="M1808.1,2366.9c0.4,0,0.7,0.2,0.9,0.4c0.2,0.3,0.3,0.6,0.3,1.1c0,0.6-0.2,1.1-0.5,1.4
				c-0.3,0.3-0.9,0.4-1.7,0.4c-0.6,0-1.1-0.1-1.4-0.2c-0.1,0-0.2-0.1-0.2-0.3c0-0.1,0-0.2,0.1-0.4c0-0.1,0.1-0.1,0.2-0.1
				c0,0,0.1,0,0.3,0.1c0.3,0.1,0.7,0.1,1,0.1c0.3,0,0.5,0,0.7-0.1c0.2-0.1,0.3-0.1,0.4-0.2s0.1-0.2,0.2-0.3c0-0.1,0-0.2,0-0.4
				c0-0.4-0.1-0.6-0.3-0.8c-0.2-0.2-0.6-0.3-1.1-0.3h-0.2c-0.1,0-0.2-0.1-0.2-0.2v-0.4c0-0.1,0.1-0.2,0.2-0.2h0.2
				c0.4,0,0.8-0.1,1-0.2c0.2-0.2,0.3-0.4,0.3-0.7c0-0.4-0.1-0.6-0.2-0.7c-0.2-0.1-0.5-0.2-0.9-0.2c-0.3,0-0.6,0-0.9,0.1
				c-0.2,0.1-0.3,0.1-0.3,0.1c-0.1,0-0.1,0-0.1-0.1c-0.1-0.2-0.1-0.4-0.1-0.4c0-0.1,0.1-0.2,0.2-0.2c0.4-0.1,0.9-0.2,1.4-0.2
				c0.7,0,1.2,0.1,1.5,0.4c0.3,0.3,0.4,0.7,0.4,1.2c0,0.3-0.1,0.6-0.3,0.8S1808.5,2366.8,1808.1,2366.9z"/>
		</g>
	</g>
</g>
</svg>
