<?xml version="1.0" encoding="utf-8"?>
<!-- Generator: Adobe Illustrator 28.0.0, SVG Export Plug-In . SVG Version: 6.00 Build 0)  -->
<svg version="1.1" id="Layer_1" xmlns="http://www.w3.org/2000/svg" xmlns:xlink="http://www.w3.org/1999/xlink" x="0px" y="0px"
	 viewBox="0 0 22.2 22.5" style="enable-background:new 0 0 22.2 22.5;" xml:space="preserve">
<style type="text/css">
	.st0{fill:none;stroke:#000000;stroke-width:1.5;stroke-miterlimit:10;}
</style>
<path class="st0" d="M3,21.6V11.3c0-0.1,0-0.1-0.1-0.1c-0.4,0-1.7,0-2,0c-0.2,0-0.1-0.4,0.1-0.5C1.3,10.4,8.7,3,10.6,1
	c0.3-0.3,0.7-0.3,1,0l9.7,9.8c0,0,0.4,0.3,0.1,0.4c-0.8,0.1-1.5,0.1-1.8,0c-0.2,0-0.3,0.1-0.3,0.3v10.1c0,0.1-0.1,0.2-0.2,0.2H15
	c-0.2,0-0.3-0.1-0.3-0.3l-0.1-6.6c0-0.2-0.2-0.4-0.4-0.4H8.6c-0.1,0-0.2,0.1-0.2,0.2v6.9c0,0.1-0.1,0.2-0.2,0.2h-5
	C3.1,21.7,3,21.7,3,21.6z"/>
</svg>
