<?xml version="1.0" encoding="utf-8"?>
<!-- Generator: Adobe Illustrator 28.0.0, SVG Export Plug-In . SVG Version: 6.00 Build 0)  -->
<svg version="1.1" id="Layer_1" xmlns="http://www.w3.org/2000/svg" xmlns:xlink="http://www.w3.org/1999/xlink" x="0px" y="0px"
	 viewBox="0 0 19.4 19.4" style="enable-background:new 0 0 19.4 19.4;" xml:space="preserve">
<style type="text/css">
	.st0{fill:none;stroke:#000000;stroke-width:1.5;stroke-miterlimit:10;}
</style>
<path class="st0" d="M1.2,3.1L3.3,1c0.3-0.3,0.8-0.3,1,0l5.1,5.2c0.1,0.1,0.3,0.1,0.4,0L14.9,1c0.3-0.3,0.7-0.3,1,0l2.2,2.3
	c0.3,0.3,0.2,0.7,0,0.9L13.3,9c-0.2,0.2-0.2,0.5,0,0.6l5.3,5.4c0.1,0.1,0.1,0.4,0,0.5l-2.8,2.8c-0.2,0.2-0.6,0.2-0.8,0l-4.9-4.9
	c-0.2-0.2-0.6-0.2-0.8,0l-5.2,5.1c-0.2,0.2-0.6,0.2-0.8,0l-2.4-2.6c-0.2-0.2-0.2-0.6,0-0.8l4.9-5C6,9.9,6,9.6,5.8,9.3L1.2,4.5
	C0.8,4.1,0.8,3.5,1.2,3.1z"/>
</svg>
