<?xml version="1.0" encoding="utf-8"?>
<!-- Generator: Adobe Illustrator 28.0.0, SVG Export Plug-In . SVG Version: 6.00 Build 0)  -->
<svg version="1.1" id="Layer_1" xmlns="http://www.w3.org/2000/svg" xmlns:xlink="http://www.w3.org/1999/xlink" x="0px" y="0px"
	 viewBox="0 0 8.5 20.2" style="enable-background:new 0 0 8.5 20.2;" xml:space="preserve">
<style type="text/css">
	.st0{fill:#F15E5E;stroke:#F15E5E;stroke-width:1.5;stroke-miterlimit:10;}
</style>
<g>
	<path class="st0" d="M1.9,11.3L0.8,1c0-0.2,0.1-0.3,0.3-0.3h6.4c0.2,0,0.3,0.2,0.3,0.4L6.6,11.5c0,0.3-0.3,0.5-0.5,0.5H2.4
		C2.2,12,1.9,11.6,1.9,11.3z"/>
	<path class="st0" d="M1.9,16.5V19c0,0.3,0.2,0.5,0.5,0.5h3.8c0.1,0,0.2-0.1,0.2-0.2v-2.7c0-0.3-0.2-0.5-0.5-0.5H2.2
		C2.1,16,1.9,16.1,1.9,16.5z"/>
</g>
</svg>
