<?xml version="1.0" encoding="utf-8"?>
<!-- Generator: Adobe Illustrator 28.0.0, SVG Export Plug-In . SVG Version: 6.00 Build 0)  -->
<svg version="1.1" id="Layer_1" xmlns="http://www.w3.org/2000/svg" xmlns:xlink="http://www.w3.org/1999/xlink" x="0px" y="0px"
	 viewBox="0 0 20.7 20.4" style="enable-background:new 0 0 20.7 20.4;" xml:space="preserve">
<style type="text/css">
	.st0{fill:none;stroke:#000000;stroke-width:1.5;stroke-linecap:round;stroke-miterlimit:10;}
	.st1{fill:none;stroke:#000000;stroke-width:0.75;stroke-miterlimit:10;}
</style>
<g>
	<path class="st0" d="M10.9,2.2H1.4C1,2.2,0.8,2.5,0.8,2.9V19c0,0.4,0.3,0.7,0.7,0.7h14.8c0.3,0,0.6-0.3,0.6-0.6v-8.8"/>
	<path class="st1" d="M6.8,13.3l0.6-3.6c0,0,0-0.1,0.1-0.1L17,0.4c0,0,0,0,0.1,0c0.2-0.1,0.9,0.3,2,1.4c1.1,1.1,1.3,1.5,1.2,1.7l0,0
		l-9.5,9.2h-0.1l-3.8,0.8C6.8,13.5,6.8,13.4,6.8,13.3z"/>
</g>
</svg>
